HIERARCHY
ROOT joint_Root
{
	OFFSET 0.0 0.0 0.0
	CHANNELS 6 Xposition Yposition Zposition Zrotation Xrotation Yrotation 
	JOINT Hips
	{
		OFFSET -0.726466 93.3139 -2.00062
		CHANNELS 6 Xposition Yposition Zposition Zrotation Xrotation Yrotation 
		JOINT Spine
		{
			OFFSET 15.7357 0.0 0.0
			CHANNELS 6 Xposition Yposition Zposition Zrotation Xrotation Yrotation 
			JOINT Chest
			{
				OFFSET 8.98455 -0.406207 0.0
				CHANNELS 6 Xposition Yposition Zposition Zrotation Xrotation Yrotation 
				JOINT Neck
				{
					OFFSET 16.3773 0.0 0.0
					CHANNELS 6 Xposition Yposition Zposition Zrotation Xrotation Yrotation 
					JOINT Head
					{
						OFFSET 6.45672 0.0 0.0
						CHANNELS 6 Xposition Yposition Zposition Zrotation Xrotation Yrotation 
						End Site
						{
							OFFSET 0.0 0.0 0.0
						}
					}
				}
				JOINT Shoulder_L
				{
					OFFSET 12.9942 -0.242716 4.98039
					CHANNELS 6 Xposition Yposition Zposition Zrotation Xrotation Yrotation 
					JOINT UpperArm_L
					{
						OFFSET 5.34809 0.0 0.0
						CHANNELS 6 Xposition Yposition Zposition Zrotation Xrotation Yrotation 
						JOINT LowerArm_L
						{
							OFFSET 24.3286 1.87007e-05 0.0
							CHANNELS 6 Xposition Yposition Zposition Zrotation Xrotation Yrotation 
							JOINT Hand_L
							{
								OFFSET 22.2916 0.0 0.0
								CHANNELS 6 Xposition Yposition Zposition Zrotation Xrotation Yrotation 
								End Site
								{
									OFFSET 0.0 0.0 0.0
								}
							}
						}
					}
				}
				JOINT Shoulder_R
				{
					OFFSET 12.9945 -0.242716 -4.98039
					CHANNELS 6 Xposition Yposition Zposition Zrotation Xrotation Yrotation 
					JOINT UpperArm_R
					{
						OFFSET -5.34813 0.0 0.0
						CHANNELS 6 Xposition Yposition Zposition Zrotation Xrotation Yrotation 
						JOINT LowerArm_R
						{
							OFFSET -24.3289 0.000322201 0.0
							CHANNELS 6 Xposition Yposition Zposition Zrotation Xrotation Yrotation 
							JOINT Hand_R
							{
								OFFSET -22.2915 -0.000108084 0.0
								CHANNELS 6 Xposition Yposition Zposition Zrotation Xrotation Yrotation 
								End Site
								{
									OFFSET 0.0 0.0 0.0
								}
							}
						}
					}
				}
			}
		}
		JOINT UpperLeg_L
		{
			OFFSET -2.19248 -6.46944 0.0
			CHANNELS 6 Xposition Yposition Zposition Zrotation Xrotation Yrotation 
			JOINT LowerLeg_L
			{
				OFFSET 39.0811 0.0 -1.23785e-05
				CHANNELS 6 Xposition Yposition Zposition Zrotation Xrotation Yrotation 
				JOINT Foot_L
				{
					OFFSET 40.9854 0.0 -1.26872e-05
					CHANNELS 6 Xposition Yposition Zposition Zrotation Xrotation Yrotation 
					JOINT Toes_L
					{
						OFFSET 11.7543 0.0 0.0
						CHANNELS 6 Xposition Yposition Zposition Zrotation Xrotation Yrotation 
						End Site
						{
							OFFSET 0.0 0.0 0.0
						}
					}
				}
			}
		}
		JOINT UpperLeg_R
		{
			OFFSET -2.19251 6.46944 0.0
			CHANNELS 6 Xposition Yposition Zposition Zrotation Xrotation Yrotation 
			JOINT LowerLeg_R
			{
				OFFSET -39.0811 -0.00228153 -0.0401928
				CHANNELS 6 Xposition Yposition Zposition Zrotation Xrotation Yrotation 
				JOINT Foot_R
				{
					OFFSET -40.9854 0.0 0.0
					CHANNELS 6 Xposition Yposition Zposition Zrotation Xrotation Yrotation 
					JOINT Toes_R
					{
						OFFSET -11.7543 0.0 0.0
						CHANNELS 6 Xposition Yposition Zposition Zrotation Xrotation Yrotation 
						End Site
						{
							OFFSET 0.0 0.0 0.0
						}
					}
				}
			}
		}
	}
}
MOTION
Frames:	4
Frame Time:	0.0333333
0.000000 0.000000 0.000000 0.000000 0.000000 -0.000000 -0.212356 92.130300 0.646834 87.973100 -1.684470 4.513140 15.735700 0.000005 -0.000001 89.585700 85.138000 -89.434200 8.984550 -0.406207 -0.000000 1.957840 -0.077941 0.304052 16.377300 -0.000001 -0.000001 3.994460 -2.968880 0.893179 6.456720 -0.000001 -0.000000 1.071420 -2.462760 -0.259705 12.994200 -0.242716 4.980390 -89.978200 -0.071034 -72.925300 5.348090 -0.000007 -0.000001 -67.608800 40.619800 -13.710400 24.328600 0.000019 0.000005 0.465018 1.087940 -23.143100 22.291600 -0.000001 0.000005 5.140450 5.489630 -6.121370 12.994500 -0.242716 -4.980390 87.572300 7.529060 -72.070400 -5.348130 -0.000001 -0.000004 -66.545700 36.444800 -16.423200 -24.328900 0.000322 -0.000009 3.968010 11.279900 -19.527400 -22.291500 -0.000108 -0.000004 3.018460 5.263110 1.103610 -2.192480 -6.469440 -0.000000 -175.761000 -6.042500 -1.211630 39.081100 -0.000007 -0.000012 -0.115339 0.268777 23.225500 40.985400 -0.000006 -0.000013 -0.160232 2.131670 -67.687600 11.754300 -0.000000 0.000003 -0.000053 -0.000593 -16.600500 -2.192510 6.469440 -0.000001 179.344000 12.313200 -179.413000 -39.081100 -0.002282 -0.040193 0.010534 -0.019372 20.423100 -40.985400 0.000008 0.000006 4.705240 7.043130 -67.143400 -11.754300 -0.000006 -0.000006 -0.007976 -0.087840 -20.150000
0.000000 0.000000 0.000000 0.000000 0.000000 -0.000000 -0.209581 92.132500 0.589428 87.983800 -1.851840 4.515340 15.735700 0.000005 -0.000001 89.345500 85.146600 -89.224000 8.984550 -0.406207 -0.000000 1.940290 -0.116972 0.244816 16.377300 -0.000001 -0.000001 3.833280 -2.757180 0.728048 6.456720 -0.000001 -0.000000 0.921058 -2.191040 -0.219159 12.994200 -0.242716 4.980390 -89.940400 -0.192203 -72.776800 5.348090 -0.000007 -0.000001 -67.836400 40.316000 -13.468800 24.328600 0.000019 0.000005 0.477794 1.120270 -23.098000 22.291600 -0.000001 0.000005 5.154780 5.490180 -6.142640 12.994500 -0.242716 -4.980390 87.443000 7.855650 -71.906000 -5.348130 -0.000001 -0.000004 -65.658500 33.131100 -16.855600 -24.328900 0.000322 -0.000009 6.646460 14.102300 -25.561900 -22.291500 -0.000108 -0.000004 -5.286760 5.176080 3.311710 -2.192480 -6.469440 -0.000000 -175.783000 -6.098750 -1.235710 39.081100 -0.000007 -0.000012 -0.115644 0.269375 23.234100 40.985400 -0.000006 -0.000013 -0.175342 2.028880 -67.661300 11.754300 -0.000000 0.000003 -0.000048 -0.000542 -16.598600 -2.192510 6.469440 -0.000001 179.370000 12.155300 -179.491000 -39.081100 -0.002282 -0.040193 0.014169 -0.029039 20.484100 -40.985400 0.000008 0.000006 4.783910 7.008820 -67.138900 -11.754300 -0.000006 -0.000006 -0.008280 -0.090301 -20.250500
0.000000 0.000000 0.000000 0.000000 0.000000 -0.000000 -0.166095 92.141600 0.454364 87.958500 -2.236970 4.425220 15.735700 0.000005 -0.000001 88.793400 85.164500 -88.644300 8.984550 -0.406207 -0.000000 1.903210 -0.211149 0.301519 16.377300 -0.000001 -0.000001 3.625220 -2.380620 0.462208 6.456720 -0.000001 -0.000000 0.631945 -1.620550 -0.443449 12.994200 -0.242716 4.980390 -89.905100 -0.305071 -72.712500 5.348090 -0.000007 -0.000001 -68.319300 39.810700 -12.913200 24.328600 0.000019 0.000005 0.520975 1.218390 -23.151600 22.291600 -0.000001 0.000005 5.053100 5.488840 -6.090400 12.994500 -0.242716 -4.980390 87.325300 8.055770 -71.563400 -5.348130 -0.000001 -0.000004 -62.915900 30.886900 -18.923400 -24.328900 0.000322 -0.000009 8.891450 12.746500 -35.341900 -22.291500 -0.000108 -0.000004 -3.520750 5.250020 1.467300 -2.192480 -6.469440 -0.000000 -175.772000 -6.467610 -1.391100 39.081100 -0.000007 -0.000012 -0.116148 0.270075 23.270600 40.985400 -0.000006 -0.000013 -0.158257 1.969750 -67.607000 11.754300 -0.000000 0.000003 -0.000053 -0.000598 -16.600800 -2.192510 6.469440 -0.000001 179.428000 11.842200 -179.760000 -39.081100 -0.002282 -0.040193 0.011208 -0.021050 20.541000 -40.985400 0.000008 0.000006 4.702010 7.092060 -67.011100 -11.754300 -0.000006 -0.000006 -0.008030 -0.088276 -20.167800
0.000000 0.000000 0.000000 0.000000 0.000000 -0.000000 -0.088297 92.148200 0.323340 87.923700 -2.816200 4.455580 15.735700 0.000005 -0.000001 88.117900 85.154200 -87.905300 8.984550 -0.406207 -0.000000 1.921100 -0.328944 0.430356 16.377300 -0.000001 -0.000001 3.523370 -2.005910 0.197990 6.456720 -0.000001 -0.000000 0.331969 -0.867812 -0.948737 12.994200 -0.242716 4.980390 -89.902700 -0.312836 -72.713400 5.348090 -0.000007 -0.000001 -68.515700 39.864200 -12.396300 24.328600 0.000019 0.000005 0.483303 1.132750 -23.106200 22.291600 -0.000001 0.000005 5.045870 5.486370 -5.994210 12.994500 -0.242716 -4.980390 87.289300 7.988920 -71.188000 -5.348130 -0.000001 -0.000004 -59.494600 28.565900 -22.444500 -24.328900 0.000322 -0.000009 12.333600 11.122500 -48.580400 -22.291500 -0.000108 -0.000004 11.082600 5.383830 -2.392290 -2.192480 -6.469440 -0.000000 -175.796000 -6.745670 -1.385870 39.081100 -0.000007 -0.000012 -0.113785 0.264162 23.303600 40.985400 -0.000006 -0.000013 -0.157260 1.686270 -67.585000 11.754300 -0.000000 0.000003 -0.000044 -0.000509 -16.597300 -2.192510 6.469440 -0.000001 179.426000 11.491700 -179.909000 -39.081100 -0.002282 -0.040193 0.007880 -0.012131 20.602100 -40.985400 0.000008 0.000006 4.600390 7.321430 -66.882600 -11.754300 -0.000006 -0.000006 -0.007968 -0.087775 -20.147300
